<svg width="49" height="48" viewBox="0 0 49 48" fill="none" xmlns="http://www.w3.org/2000/svg">
<path d="M13.5692 48C5.40256 48 0 43.2737 0 35.601C0 31.7954 1.57051 27.4987 4.14615 24.3683C6.59615 21.3606 10.7423 17.4322 15.391 17.4322C17.5897 17.4322 18.218 18.046 19.3487 19.8875C23.1808 16.8184 30.4679 10.0665 30.4679 5.76982C30.4679 5.15601 30.2167 4.5422 29.7769 3.98977C29.3372 3.43734 29.0231 2.94629 29.0231 2.39386C29.0231 1.04348 30.2795 0 31.5359 0C33.4833 0 34.4256 1.10486 34.4256 3.31458C34.4256 8.04092 29.2115 14.7928 18.2179 23.4476C14.3231 26.5166 9.4859 29.8312 4.20897 33.3913C4.20897 40.6957 8.85769 44.5013 15.1397 44.5013C25.2538 44.5013 33.5462 34.312 33.9859 21.8517C33.1692 21.1765 32.1641 20.8082 30.8449 20.8082C28.5833 20.8082 26.1333 22.7724 26.1333 24.3683C26.1333 24.9821 26.3218 25.78 26.6359 26.6394C26.95 27.4987 27.0756 28.1125 27.0756 28.5422C27.0756 29.7084 26.3846 30.2609 25.0026 30.2609C23.1808 30.2609 22.3013 29.4629 22.3013 27.8056C22.3013 23.3862 28.3949 18.2916 32.7923 18.2916C35.6821 18.2916 37.6295 19.8261 40.2051 22.3427C41.8385 23.9386 43.0949 24.7366 44.0372 24.7366C44.791 24.7366 45.1679 24.1228 45.1679 22.8338C45.1679 22.4655 45.0423 21.6675 44.6654 20.3785C44.6654 19.335 45.7962 18.7826 46.6756 18.7826C48.2462 18.7826 49 19.9488 49 22.2813C49 24.0614 48.4974 25.1662 47.3667 25.4118C46.6756 25.5345 45.9218 25.78 44.6654 26.1483C43.409 26.578 42.2154 26.9463 41.4615 27.2532C41.0218 27.4987 40.8333 27.4987 40.6449 27.4987C40.3936 27.4987 40.2051 27.3146 39.5769 26.5166C38.6974 25.289 37.2526 23.8159 35.6192 22.5882V23.5089C35.6192 33.8824 29.2115 48 13.5692 48ZM4.33462 30.9974C8.85769 27.9284 12.25 25.4118 14.5744 23.4476C14.6372 22.9565 14.6372 22.4655 14.6372 21.9744C14.6372 20.6854 13.9462 20.0716 12.5641 20.0716C10.9308 20.0716 8.29231 22.3427 7.09872 24.1228C6.03077 25.6573 4.77436 28.665 4.33462 30.9974Z" fill="black"/>
</svg>
